Simulation
nRows=16
nColumns=15
endheader
time  TH_x TH_y TH_z SC_y  SC_z  SC_x  AC_y  AC_z  AC_x  GH_y  GH_z  GH_yy  EL_x  PS_y
8.043  0.000000  0.000000  0.000000  -21.510373900592327  3.703576184917016  -3.5554614148738666  55.749759820498305  11.165609838556355  4.352547792195249  14.877039390527331  5.315795363042772  41.591094102187725  17.206437436535122  120.000000
8.09662  0.000000  0.000000  0.000000  -21.014445110455686  3.3603804608187513  -4.814922367131512  55.50180861613098  10.716753259982594  4.604374413128985  15.044645915759821  7.345275459481793  40.94377736640507  16.60365101370908  120.000000
8.15024  0.000000  0.000000  0.000000  -20.4641826980103  3.005171161633065  -6.111837280360589  55.305462083294984  10.40592880477289  4.977601102942129  16.07794794643704  9.590189984100476  39.203097875939406  15.854724556343616  120.000000
8.20386  0.000000  0.000000  0.000000  -19.922462218001396  2.6644440190235725  -7.404918491823244  55.21149174181869  10.274343764432722  5.465657358038319  17.554960747227454  12.10087134019216  36.7615715838987  15.016431013123048  120.000000
8.257480000000001  0.000000  0.000000  0.000000  -19.473334372241332  2.364983887603674  -8.649642635828299  55.24893059256759  10.356310794543989  6.060470859926787  19.165419438171092  14.92728994354791  33.9033087532986  14.164969465492605  120.000000
8.3111  0.000000  0.000000  0.000000  -19.192652082722233  2.1379441521391387  -9.804056070816282  55.43677044881712  10.674881916091481  6.7425796395017485  20.694564783007205  18.09863123583097  30.833410499174413  13.37397191334905  120.000000
8.36472  0.000000  0.000000  0.000000  -19.11759530363565  2.0109144398089227  -10.824931426957168  55.79405720171787  11.240303124220352  7.481011604564336  22.038101972607468  21.608087636745925  27.67369644493613  12.691968716130175  120.000000
8.41834  0.000000  0.000000  0.000000  -19.231323405977566  1.9863406574153286  -11.65846966372749  56.31545877680659  12.044047028720385  8.25452122898257  23.161943395827844  25.39042266942879  24.508965738977924  12.133994876646451  120.000000
8.47196  0.000000  0.000000  0.000000  -19.46987918720539  2.0464258846889902  -12.247748754469903  56.96307137951677  13.060045798630401  9.048872112758726  24.06938781629717  29.31866905028581  21.408668494394373  11.691156579076287  120.000000
8.52558  0.000000  0.000000  0.000000  -19.739224075705962  2.1807219170367502  -12.54652707654984  57.69934665021547  14.256338377406077  9.828486703747716  24.792734634262793  33.247426538244476  18.408195490862198  11.340747389209374  120.000000
8.5792  0.000000  0.000000  0.000000  -19.955454118705802  2.400061707970162  -12.523110599073188  58.49840582957005  15.58942164738229  10.538775804093019  25.367941003660434  37.05125100159878  15.52187051862752  11.060034649660173  120.000000
8.63282  0.000000  0.000000  0.000000  -20.087750341700616  2.705488269231855  -12.151233766588945  59.31323453589887  16.987865132907878  11.148442469610503  25.812947931577202  40.63524134491035  12.76306424068264  10.832276223830227  120.000000
8.686440000000001  0.000000  0.000000  0.000000  -20.153747156769523  3.0907263398525466  -11.410959935844561  60.08719606139473  18.35754594804822  11.65405353449746  26.136496438996  43.94148488679489  10.14240741743972  10.646554577518598  120.000000
8.74006  0.000000  0.000000  0.000000  -20.197487547580277  3.5494984078084  -10.297724814470774  60.78048872373594  19.60139743278177  12.068126073003244  26.34693091074378  46.946865212085925  7.669242338224539  10.497375645803357  120.000000
8.79368  0.000000  0.000000  0.000000  -20.266105265650754  4.069431276180852  -8.82406572714585  61.37229401562563  20.634518845293684  12.417607677341605  26.450114404087277  49.64567002877127  5.356686277101153  10.382860715465457  120.000000
8.8473  0.000000  0.000000  0.000000  -20.399074074477365  4.636894060111766  -7.027108342431826  61.85937032920078  21.395425457892756  12.730527862053846  26.44730113656649  52.03825868887309  3.2206855161023284  10.30355543540835  120.000000
